<svg class="main-svg" xmlns="http://www.w3.org/2000/svg" xmlns:xlink="http://www.w3.org/1999/xlink" width="1200" height="400" style="" viewBox="0 0 1200 400"><rect x="0" y="0" width="1200" height="400" style="fill: rgb(255, 255, 255); fill-opacity: 1;"/><defs id="defs-3a6027"><g class="clips"><clipPath id="clip3a6027xyplot" class="plotclip"><rect width="1040" height="220"/></clipPath><clipPath class="axesclip" id="clip3a6027x"><rect x="80" y="0" width="1040" height="400"/></clipPath><clipPath class="axesclip" id="clip3a6027y"><rect x="0" y="100" width="1200" height="220"/></clipPath><clipPath class="axesclip" id="clip3a6027xy"><rect x="80" y="100" width="1040" height="220"/></clipPath></g><g class="gradients"/><g class="patterns"/></defs><g class="bglayer"/><g class="layer-below"><g class="imagelayer"/><g class="shapelayer"/></g><g class="cartesianlayer"><g class="subplot xy"><g class="layer-subplot"><g class="shapelayer"/><g class="imagelayer"/></g><g class="minor-gridlayer"><g class="x"/><g class="y"/></g><g class="gridlayer"><g class="x"/><g class="y"><path class="ygrid crisp" transform="translate(0,240.6)" d="M80,0h1040" style="stroke: rgb(240, 242, 246); stroke-opacity: 1; stroke-width: 1px;"/><path class="ygrid crisp" transform="translate(0,161.19)" d="M80,0h1040" style="stroke: rgb(240, 242, 246); stroke-opacity: 1; stroke-width: 1px;"/></g></g><g class="zerolinelayer"/><path class="xlines-below"/><path class="ylines-below"/><g class="overlines-below"/><g class="xaxislayer-below"/><g class="yaxislayer-below"/><g class="overaxes-below"/><g class="plot" transform="translate(80,100)" clip-path="url(#clip3a6027xyplot)"><g class="scatterlayer mlayer"><g class="trace scatter trace54c4fb" style="stroke-miterlimit: 2; opacity: 1;"><g class="fills"/><g class="errorbars"/><g class="lines"><path class="js-line" style="vector-effect: none; fill: none; stroke: rgb(173, 216, 230); stroke-opacity: 1; stroke-width: 2px; opacity: 1;" d="M-657.92,4620L-657.92,205.93L-657.811015583334,4620L-618.71,4620L-618.71,200.07L-618.71,4620.000000000001L0,4620L-594.86,4620L-594.86,184.89L-594.86,4620L-544.53,4620L-544.53,203.42L-544.53,4620L0,4620L-513.74,4620.000000000233L-513.74,171.27L-513.74,4620L-307.64,4620L-307.64,206.4L-307.64,4620L-283.79,4620L-283.79,205.56L-283.79,4620L0,4620L-244.58,4620.000000000233L-244.58,191.19L-244.58,4619.999999999999L0,4620L-224.95,4620L-224.95,204.33L-224.95,4620L-203.92,4620L-203.92,203.62L-203.92,4620L0,4620L-164.71,4620.000000000233L-164.71,185.44L-164.71,4619.999999999999L0,4620L-23.18,4620L-23.18,206.75L-23.18,4620.000000000001L0,4620L14.65,4620.000000000233L14.65,97.78L15.060938638018428,4620L158.97,4620L158.97,199.69L158.97,4619.999999999999L0,4620L182.81,4620.000000000233L182.81,205.14L182.81,4620L0,4620L341.17,4620.000000000233L341.17,208.97L341.17,4620L419.6,4620L419.6,195.05L419.6,4620L0,4620L443.45,4620.000000000233L443.45,198.79L443.45,4620L512.18,4620L512.18,207.42L512.18,4620L577.99,4620L577.99,184.89L577.99,4620L601.84,4620L601.84,205.94L601.84,4620L0,4620L632.69,4620.000000000233L632.69,203.23L632.69,4620L638.33,4620L638.33,202.87L638.33,4620L677.55,4620L677.55,177.25L677.55,4620L701.39,4620L701.39,209.68L701.39,4620L716.74,4620L716.74,197.82L716.74,4620L716.7499717645244,4620L716.75,135.79L716.8173416093279,4620L740.6,4620L740.6,205.18L740.6,4620L0,4620L883.55,4620.000000000233L883.55,194.33L883.55,4620L907.39,4620L907.39,190.91L907.39,4620L922.75,4620L922.75,168.37L922.75,4620.000000000001L0,4620L946.6,4620L946.6,159.48L946.6,4620L963.41,4620L963.41,208.8L963.41,4620L987.25,4620L987.25,185.93L987.25,4620L1002.62,4620L1002.62,199.66L1002.62,4620L1026.47,4620L1026.47,159.89L1026.47,4619.999999999999L0,4620L1067.12,4620.000000000233L1067.12,186.16L1067.12,4619.999999999999L0,4620L1106.34,4620L1106.34,176.29L1106.34,4620L1157.29,4620L1157.29,211.25L1157.29,4620L0,4620L1222.28,4620.000000000233L1222.28,103.33L1222.292740798971,4620L1226.76,4620L1226.76,205.41L1226.76,4620L0,4620L1330.49,4620.000000000233L1330.49,193.47L1330.49,4620L1452.39,4620L1452.39,205.18L1452.39,4620L1538.12,4620L1538.12,146.71L1538.12,4619.999999999999L0,4620L1627.59,4620.000000000233L1627.59,186.95L1627.59,4619.999999999999L0,4620L1627.59997208438,4620.000000000233L1627.6,186.73L1627.7094292301722,4620L1666.8,4620L1666.8,187.54L1666.8,4620L0,4620L1785.99,4620.000000000233L1785.99,193.98L1785.99,4620L0,4620L1825.2,4620.000000000233L1825.2,164.76L1825.2,4620L1850.44,4620L1850.44,203.03L1850.44,4620L1885.49,4620L1885.49,190.27L1885.49,4620L1885.49,183.79L1885.5995295314306,4620L1924.7,4620L1924.7,166.16L1924.7,4619.999999999999L0,4620L1954.32,4620L1954.32,204.78L1954.32,4620L2024.2,4620L2024.2,146.55L2024.2,4620.000000000001L0,4620L2049.45,4620L2049.45,200.06L2049.45,4620L2104.07,4620L2104.07,197.53L2104.07,4620L2127.91,4620L2127.91,176.59L2127.91,4620L2194.48,4620L2194.48,75.19L2194.48,4620L0,4620L2194.94865404658,4620.000000000233L2194.95,71.79L2195.055070278675,4620L0,4620L2231.64,4620.000000000233L2231.64,197.21L2231.64,4620L0,4620L2270.84,4620.000000000233L2270.84,21.83L2270.84,4620L2270.8499709472712,4620L2270.85,5.62L2270.9239682468747,4620L0,4620L2296.31,4620.000000000233L2296.31,171.96L2296.31,4620L2310.06,4620L2310.06,38.92L2310.06,4620L2486.91,4620L2486.91,120.16L2486.91,4620L2587.54,4620L2587.54,196.33L2587.54,4620L0,4620L2625.67,4620.000000000233L2625.67,188.77L2625.67,4620L2626.737010502397,4620L2626.74,182.97L2627.0730076815926,4620L0,4620L2745.93,4620.000000000233L2745.93,199.13L2745.93,4619.999999999999L0,4620L2764.43,4620L2764.43,192.48L2764.43,4620L0,4620L2785.14,4620.000000000233L2785.14,196.35L2785.14,4620L0,4620L2984.19,4620.000000000233L2984.19,185.45L2984.19,4620L0,4620L3023.4,4620.000000000233L3023.4,178.11L3023.4,4620.000000000001L0,4620L3025.0653282867643,4620.000000000233L3025.07,177.38L3025.605372741986,4620L0,4620L3216.45,4620.000000000233L3216.45,209.91L3216.45,4620L3231.0191739963325,4620L3231.06,182.23L3231.635643857325,4620L3437.06,4620L3437.06,165.07L3437.06,4620L0,4620L3588.19,4620.000000000233L3588.19,197.77L3588.19,4620L3627.39,4620L3627.39,204.71L3627.39,4620L0,4620L3697.69,4620.000000000233L3697.69,160.98L3697.69,4620L0,4620L3856.09,4620.000000000233L3856.09,196.51L3856.09,4620L4011.61,4620L4011.61,192.56L4011.61,4620L4035.46,4620L4035.46,115.05L4035.46,4620L0,4620L4474.09,4620.000000000233L4474.09,204.76L4474.09,4620L4894.47,4620L4894.47,189.21L4894.47,4620L5041.18,4620L5041.18,198.2L5041.18,4620L5774.58,4620L5774.58,197.14L5774.58,4620L5956.41,4620L5956.41,143.62L5956.41,4620.000000000001L0,4620L6040.82,4620L6040.82,191.83L6040.82,4620L0,4620L6192.29,4620.000000000233L6192.29,193.39L6192.29,4619.999999999999L0,4620L6197.585166869641,4620L6197.6,183.75L6198.42660482195,4620L6493.51,4620L6493.51,185.68L6493.51,4620L0,4620L6630.82,4620.000000000233L6630.82,184.27L6630.82,4620L0,4620L6871.67,4620.000000000233L6871.67,186.15L6871.67,4620L7607.57,4620L7607.57,77.85L7607.57,4619.999999999999L0,4620L7631.355664208847,4620L7631.43,-329.32L7631.918946314483,4620L7788.37,4620L7788.37,157.36L7788.37,4620.000000000001L0,4620L7789.805911008765,4620.000000000233L7789.81,110.26L7790.156087674843,4620L7911.69,4620L7911.69,-90.32L7911.69,4620L8046.27,4620L8046.27,169.59L8046.27,4620L0,4620L8070.038105704366,4620.000000000233L8070.11,-170.3L8070.515792635087,4620L0,4620L8204.67,4620.000000000233L8204.67,189.02L8204.67,4620L0,4620L8228.440023074238,4620.000000000233L8228.51,-42.17L8229.003507572497,4620L0,4620L8396.64,4620.000000000233L8396.64,155.95L8396.64,4620L8420.388219391756,4620L8420.46,-166.73L8420.865551396197,4620L8555.04,4620L8555.04,188.04L8555.04,4620L0,4620L8578.862279798019,4620.000000000233L8578.93,118.08L8579.219051025366,4620L8680.9,4620L8680.9,166.07L8680.9,4620L8737.29,4620L8737.29,138.82L8737.29,4620L0,4620L8854.93,4620.000000000233L8854.93,206.09L8854.93,4620L0,4620L8878.732012469967,4620.000000000233L8878.8,96.46L8879.251161489608,4620L9037.2,4620L9037.2,139.81L9037.2,4620.000000000001L0,4620L9136.68,4620.000000000233L9136.68,158.64L9136.68,4620L9351.13,4620L9351.13,194.94L9351.13,4620L0,4620L9374.892093782968,4620.000000000233L9374.96,94.28L9375.411378295332,4620L9533.36,4620L9533.36,189.43L9533.36,4620L9592.195037768759,4620L9592.36,179.71L9592.473180866453,4620L0,4620L9632.84,4620.000000000233L9632.84,195.19L9632.84,4620L0,4620L9903.34,4620.000000000233L9903.34,187.22L9903.34,4620L0,4620L9927.14051687037,4620.000000000233L9927.21,-3.34L9927.499547000592,4620L10026.68,4620L10026.68,149.17L10026.68,4620L10312.55,4620L10312.55,177.15L10312.55,4620.000000000001L0,4620L10524.08,4620L10524.08,174.74L10524.08,4620L10547.947565827344,4620L10548.02,-186.16L10548.248830262239,4620L10623.65,4620L10623.65,197.57L10623.65,4620L10647.411823726372,4620L10647.48,76.23L10648.069497321903,4620L10853.53,4620L10853.53,129.77L10853.53,4620L0,4620L11032.9,4620.000000000233L11032.9,-334.04L11032.9,4620L11193.98,4620L11193.98,191.56L11193.98,4620L11195.39602840293,4620L11195.4,178.23L11195.791957474023,4620L11335.54,4620L11335.54,170.46L11335.54,4619.999999999999L0,4620L11433.63,4620L11433.63,180.39L11433.63,4619.999999999999L0,4620L11514.86,4620L11514.86,42.3L11514.86,4620L11514.92979566896,4620L11514.93,-16.27L11515.416687345743,4620L11681.66,4620L11681.66,188.59L11681.66,4620L11706.815686311938,4620L11706.89,-58.38L11707.356559183076,4620L0,4620L11865.29,4620.000000000233L11865.29,104.27L11865.29,4620L12606.7,4620L12606.7,176.8L12606.7,4620L0,4620L12986.52,4620.000000000233L12986.52,192.27L12986.52,4620L13545.37,4620L13545.37,121.91L13545.37,4620L13583.039330189702,4620L13583.15,-32.69L13587.621523169022,4620L15109.62,4620L15109.62,77.66L15109.62,4620L15231.54,4620L15231.54,187.51L15231.54,4620L15424.93,4620L15424.93,195.96L15424.93,4619.999999999999L0,4620L17054.63,4620.000000000233L17054.63,187.26L17054.63,4620L17079.694476104018,4620L17079.77,-151.87L17082.316903699866,4619.999999999999L0,4620L17927.57,4620.000000000233L17927.57,185.36L17927.57,4620.000000000001L0,4620L18049.149273040934,4620L18049.49,181.77L18078.292802374563,4620L21840,4620"/></g><g class="points"/><g class="text"/></g><g class="trace scatter trace7ac1c2" style="stroke-miterlimit: 2; opacity: 1;"><g class="fills"/><g class="errorbars"/><g class="lines"><path class="js-line" style="vector-effect: none; fill: none; stroke: rgb(228, 87, 46); stroke-opacity: 1; stroke-width: 2px; opacity: 1;" d="M119.75,4620L119.75,190.17L120.47702971674607,4620L380.39,4620L380.39,176.43L380.39,4620L0,4620L538.78,4620.000000000233L538.78,183.64L538.78,4620L677.54,4620L677.54,138.99L677.54,4620L883.54,4620L883.54,160.36L883.54,4620"/></g><g class="points"/><g class="text"/></g><g class="trace scatter trace2eb5d7" style="stroke-miterlimit: 2; opacity: 1;"><g class="fills"/><g class="errorbars"/><g class="lines"/><g class="points"><path class="point" transform="translate(883.54,67.22)" style="opacity: 0; stroke-width: 0px; fill: rgb(214, 39, 40); fill-opacity: 1;" d="M10,0A10,10 0 1,1 0,-10A10,10 0 0,1 10,0Z"/></g><g class="text"/></g><g class="trace scatter traceb40250" style="stroke-miterlimit: 2; opacity: 1;"><g class="fills"/><g class="errorbars"/><g class="lines"/><g class="points"><path class="point" transform="translate(677.54,67.22)" style="opacity: 0; stroke-width: 0px; fill: rgb(148, 103, 189); fill-opacity: 1;" d="M10,0A10,10 0 1,1 0,-10A10,10 0 0,1 10,0Z"/></g><g class="text"/></g><g class="trace scatter tracefb55fb" style="stroke-miterlimit: 2; opacity: 1;"><g class="fills"/><g class="errorbars"/><g class="lines"/><g class="points"><path class="point" transform="translate(538.78,67.22)" style="opacity: 0; stroke-width: 0px; fill: rgb(140, 86, 75); fill-opacity: 1;" d="M10,0A10,10 0 1,1 0,-10A10,10 0 0,1 10,0Z"/></g><g class="text"/></g><g class="trace scatter trace244cf6" style="stroke-miterlimit: 2; opacity: 1;"><g class="fills"/><g class="errorbars"/><g class="lines"/><g class="points"><path class="point" transform="translate(380.39,67.22)" style="opacity: 0; stroke-width: 0px; fill: rgb(227, 119, 194); fill-opacity: 1;" d="M10,0A10,10 0 1,1 0,-10A10,10 0 0,1 10,0Z"/></g><g class="text"/></g><g class="trace scatter tracea592ba" style="stroke-miterlimit: 2; opacity: 1;"><g class="fills"/><g class="errorbars"/><g class="lines"/><g class="points"><path class="point" transform="translate(119.75,67.22)" style="opacity: 0; stroke-width: 0px; fill: rgb(127, 127, 127); fill-opacity: 1;" d="M10,0A10,10 0 1,1 0,-10A10,10 0 0,1 10,0Z"/></g><g class="text"/></g></g></g><g class="overplot"/><path class="xlines-above crisp" style="fill: none; stroke-width: 1px; stroke: rgb(128, 128, 128); stroke-opacity: 1;" d="M79,320.5H1120"/><path class="ylines-above crisp" style="fill: none; stroke-width: 1px; stroke: rgb(128, 128, 128); stroke-opacity: 1;" d="M79.5,100V320"/><g class="overlines-above"/><g class="xaxislayer-above"><g class="xtick"><text text-anchor="middle" x="0" y="335.4" style="font-family: TOBESTRIPPEDOpen SansTOBESTRIPPED, verdana, arial, sans-serif; font-size: 12px; fill: rgb(49, 51, 63); fill-opacity: 1; white-space: pre; opacity: 1;" transform="translate(197.34,0)">1500</text></g><g class="xtick"><text text-anchor="middle" x="0" y="335.4" style="font-family: TOBESTRIPPEDOpen SansTOBESTRIPPED, verdana, arial, sans-serif; font-size: 12px; fill: rgb(49, 51, 63); fill-opacity: 1; white-space: pre; opacity: 1;" transform="translate(337.41,0)">1600</text></g><g class="xtick"><text text-anchor="middle" x="0" y="335.4" style="font-family: TOBESTRIPPEDOpen SansTOBESTRIPPED, verdana, arial, sans-serif; font-size: 12px; fill: rgb(49, 51, 63); fill-opacity: 1; white-space: pre; opacity: 1;" transform="translate(477.48,0)">1700</text></g><g class="xtick"><text text-anchor="middle" x="0" y="335.4" style="font-family: TOBESTRIPPEDOpen SansTOBESTRIPPED, verdana, arial, sans-serif; font-size: 12px; fill: rgb(49, 51, 63); fill-opacity: 1; white-space: pre; opacity: 1;" transform="translate(617.54,0)">1800</text></g><g class="xtick"><text text-anchor="middle" x="0" y="335.4" style="font-family: TOBESTRIPPEDOpen SansTOBESTRIPPED, verdana, arial, sans-serif; font-size: 12px; fill: rgb(49, 51, 63); fill-opacity: 1; white-space: pre; opacity: 1;" transform="translate(757.61,0)">1900</text></g><g class="xtick"><text text-anchor="middle" x="0" y="335.4" style="font-family: TOBESTRIPPEDOpen SansTOBESTRIPPED, verdana, arial, sans-serif; font-size: 12px; fill: rgb(49, 51, 63); fill-opacity: 1; white-space: pre; opacity: 1;" transform="translate(897.68,0)">2000</text></g><g class="xtick"><text text-anchor="middle" x="0" y="335.4" style="font-family: TOBESTRIPPEDOpen SansTOBESTRIPPED, verdana, arial, sans-serif; font-size: 12px; fill: rgb(49, 51, 63); fill-opacity: 1; white-space: pre; opacity: 1;" transform="translate(1037.75,0)">2100</text></g></g><g class="yaxislayer-above"><g class="ytick"><text text-anchor="end" x="76.6" y="4.199999999999999" style="font-family: TOBESTRIPPEDOpen SansTOBESTRIPPED, verdana, arial, sans-serif; font-size: 12px; fill: rgb(49, 51, 63); fill-opacity: 1; white-space: pre; opacity: 1;" transform="translate(0,320)">0</text></g><g class="ytick"><text text-anchor="end" x="76.6" y="4.199999999999999" style="font-family: TOBESTRIPPEDOpen SansTOBESTRIPPED, verdana, arial, sans-serif; font-size: 12px; fill: rgb(49, 51, 63); fill-opacity: 1; white-space: pre; opacity: 1;" transform="translate(0,240.6)">500</text></g><g class="ytick"><text text-anchor="end" x="76.6" y="4.199999999999999" style="font-family: TOBESTRIPPEDOpen SansTOBESTRIPPED, verdana, arial, sans-serif; font-size: 12px; fill: rgb(49, 51, 63); fill-opacity: 1; white-space: pre; opacity: 1;" transform="translate(0,161.19)">1000</text></g></g><g class="overaxes-above"/></g></g><g class="polarlayer"/><g class="smithlayer"/><g class="ternarylayer"/><g class="geolayer"/><g class="funnelarealayer"/><g class="pielayer"/><g class="iciclelayer"/><g class="treemaplayer"/><g class="sunburstlayer"/><g class="glimages"/><defs id="topdefs-3a6027"><g class="clips"/></defs><g class="layer-above"><g class="imagelayer"/><g class="shapelayer"><g class="shape-group" data-index="0" clip-path="url(#clip3a6027xy)"><path data-index="0" fill-rule="evenodd" d="M925.72,175.78H1001.36V158.67000000000002H925.72Z" style="opacity: 1; stroke: rgb(0, 0, 0); stroke-opacity: 0; fill: rgb(228, 87, 46); fill-opacity: 1; stroke-width: 0px;"/></g><g class="shape-group" data-index="1" clip-path="url(#clip3a6027xy)"><path data-index="1" fill-rule="evenodd" d="M719.72,175.78H795.36V158.67000000000002H719.72Z" style="opacity: 1; stroke: rgb(0, 0, 0); stroke-opacity: 0; fill: rgb(228, 87, 46); fill-opacity: 1; stroke-width: 0px;"/></g><g class="shape-group" data-index="2" clip-path="url(#clip3a6027xy)"><path data-index="2" fill-rule="evenodd" d="M580.96,175.78H656.6V158.67000000000002H580.96Z" style="opacity: 1; stroke: rgb(0, 0, 0); stroke-opacity: 0; fill: rgb(228, 87, 46); fill-opacity: 1; stroke-width: 0px;"/></g><g class="shape-group" data-index="3" clip-path="url(#clip3a6027xy)"><path data-index="3" fill-rule="evenodd" d="M422.57,175.78H498.2V158.67000000000002H422.57Z" style="opacity: 1; stroke: rgb(0, 0, 0); stroke-opacity: 0; fill: rgb(228, 87, 46); fill-opacity: 1; stroke-width: 0px;"/></g><g class="shape-group" data-index="4" clip-path="url(#clip3a6027xy)"><path data-index="4" fill-rule="evenodd" d="M161.93,175.78H237.57V158.67000000000002H161.93Z" style="opacity: 1; stroke: rgb(0, 0, 0); stroke-opacity: 0; fill: rgb(228, 87, 46); fill-opacity: 1; stroke-width: 0px;"/></g></g></g><g class="infolayer"><g class="g-gtitle"><text class="gtitle" style="font-family: TOBESTRIPPEDOpen SansTOBESTRIPPED, verdana, arial, sans-serif; font-size: 17px; fill: rgb(49, 51, 63); opacity: 1; font-weight: normal; white-space: pre;" x="600" y="50" text-anchor="middle" dy="0em"><tspan style="font-weight:bold">Augmented Deconvolved Spectrum</tspan></text></g><g class="g-xtitle"><text class="xtitle" style="font-family: TOBESTRIPPEDOpen SansTOBESTRIPPED, verdana, arial, sans-serif; font-size: 14px; fill: rgb(49, 51, 63); opacity: 1; font-weight: normal; white-space: pre;" x="600" y="372" text-anchor="middle">Monoisotopic Mass</text></g><g class="g-ytitle"><text class="ytitle" transform="rotate(-90,42,210)" style="font-family: TOBESTRIPPEDOpen SansTOBESTRIPPED, verdana, arial, sans-serif; font-size: 14px; fill: rgb(49, 51, 63); opacity: 1; font-weight: normal; white-space: pre;" x="42" y="210" text-anchor="middle">Intensity</text></g><g class="annotation" data-index="0" style="opacity: 1;"><g class="annotation-text-g" transform="rotate(0,963.54,167.22)"><g class="cursor-pointer" transform="translate(933,153)"><rect class="bg" style="stroke-width: 1px; stroke: rgb(0, 0, 0); stroke-opacity: 0; fill: rgb(0, 0, 0); fill-opacity: 0;" x="0.5" y="0.5" width="61" height="27"/><text class="annotation-text" style="font-family: sans-serif; font-size: 15px; fill: rgb(49, 51, 63); fill-opacity: 1; white-space: pre;" text-anchor="middle" x="30.7666015625" y="20">2047.02</text></g></g></g><g class="annotation" data-index="1" style="opacity: 1;"><g class="annotation-text-g" transform="rotate(0,757.54,167.22)"><g class="cursor-pointer" transform="translate(727,153)"><rect class="bg" style="stroke-width: 1px; stroke: rgb(0, 0, 0); stroke-opacity: 0; fill: rgb(0, 0, 0); fill-opacity: 0;" x="0.5" y="0.5" width="61" height="27"/><text class="annotation-text" style="font-family: sans-serif; font-size: 15px; fill: rgb(49, 51, 63); fill-opacity: 1; white-space: pre;" text-anchor="middle" x="30.7666015625" y="20">1899.95</text></g></g></g><g class="annotation" data-index="2" style="opacity: 1;"><g class="annotation-text-g" transform="rotate(0,618.78,167.22)"><g class="cursor-pointer" transform="translate(588,153)"><rect class="bg" style="stroke-width: 1px; stroke: rgb(0, 0, 0); stroke-opacity: 0; fill: rgb(0, 0, 0); fill-opacity: 0;" x="0.5" y="0.5" width="61" height="27"/><text class="annotation-text" style="font-family: sans-serif; font-size: 15px; fill: rgb(49, 51, 63); fill-opacity: 1; white-space: pre;" text-anchor="middle" x="30.7666015625" y="20">1800.88</text></g></g></g><g class="annotation" data-index="3" style="opacity: 1;"><g class="annotation-text-g" transform="rotate(0,460.39,167.22)"><g class="cursor-pointer" transform="translate(429,153)"><rect class="bg" style="stroke-width: 1px; stroke: rgb(0, 0, 0); stroke-opacity: 0; fill: rgb(0, 0, 0); fill-opacity: 0;" x="0.5" y="0.5" width="61" height="27"/><text class="annotation-text" style="font-family: sans-serif; font-size: 15px; fill: rgb(49, 51, 63); fill-opacity: 1; white-space: pre;" text-anchor="middle" x="30.7666015625" y="20">1687.80</text></g></g></g><g class="annotation" data-index="4" style="opacity: 1;"><g class="annotation-text-g" transform="rotate(0,199.75,167.22)"><g class="cursor-pointer" transform="translate(169,153)"><rect class="bg" style="stroke-width: 1px; stroke: rgb(0, 0, 0); stroke-opacity: 0; fill: rgb(0, 0, 0); fill-opacity: 0;" x="0.5" y="0.5" width="61" height="27"/><text class="annotation-text" style="font-family: sans-serif; font-size: 15px; fill: rgb(49, 51, 63); fill-opacity: 1; white-space: pre;" text-anchor="middle" x="30.7666015625" y="20">1501.72</text></g></g></g><g class="annotation" data-index="5" style="opacity: 1;"><g class="annotation-text-g" transform="rotate(0,879.08,243.61)"><g class="cursor-pointer" transform="translate(875,234)"><rect class="bg" style="stroke-width: 1px; stroke: rgb(0, 0, 0); stroke-opacity: 0; fill: rgb(0, 0, 0); fill-opacity: 0;" x="0.5" y="0.5" width="8" height="19"/><text class="annotation-text" style="font-family: TOBESTRIPPEDOpen SansTOBESTRIPPED, verdana, arial, sans-serif; font-size: 12px; fill: rgb(49, 51, 63); fill-opacity: 1; white-space: pre;" text-anchor="middle" x="4.68359375" y="14"> </text></g></g><g style="opacity: 1;" class="annotation-arrow-g"><path d="M875.08,243.61L778.14,243.61" style="stroke-width: 2px; stroke: rgb(228, 87, 46); stroke-opacity: 1; stroke-dasharray: 0px, 0px, 96.94px, 96.94px;"/></g></g><g class="annotation" data-index="6" style="opacity: 1;"><g class="annotation-text-g" transform="rotate(0,842,243.61)"><g class="cursor-pointer" transform="translate(838,234)"><rect class="bg" style="stroke-width: 1px; stroke: rgb(0, 0, 0); stroke-opacity: 0; fill: rgb(0, 0, 0); fill-opacity: 0;" x="0.5" y="0.5" width="8" height="19"/><text class="annotation-text" style="font-family: TOBESTRIPPEDOpen SansTOBESTRIPPED, verdana, arial, sans-serif; font-size: 12px; fill: rgb(49, 51, 63); fill-opacity: 1; white-space: pre;" text-anchor="middle" x="4.68359375" y="14"> </text></g></g><g style="opacity: 1;" class="annotation-arrow-g"><path d="M846,243.61L942.94,243.61" style="stroke-width: 2px; stroke: rgb(228, 87, 46); stroke-opacity: 1; stroke-dasharray: 0px, 0px, 94.34px, 96.94px;"/><path d="M-3.7,-2.5V2.5L1.3,0Z" transform="translate(940.3400268554688,243.61000061035156)scale(2)" style="fill: rgb(228, 87, 46); stroke-width: 0px;"/></g></g><g class="annotation" data-index="7" style="opacity: 1;"><g class="annotation-text-g" transform="rotate(0,860.54,228.33)"><g style="pointer-events: all;" class="cursor-pointer" transform="translate(854,214)"><rect class="bg" style="stroke-width: 1px; stroke: rgb(0, 0, 0); stroke-opacity: 0; fill: rgb(0, 0, 0); fill-opacity: 0;" x="0.5" y="0.5" width="13" height="27"/><text class="annotation-text" style="font-family: sans-serif; font-size: 15px; fill: rgb(228, 87, 46); fill-opacity: 1; white-space: pre;" text-anchor="middle" x="6.9169921875" y="20">F</text></g></g></g><g class="annotation" data-index="8" style="opacity: 1;"><g class="annotation-text-g" transform="rotate(0,700.65,243.61)"><g class="cursor-pointer" transform="translate(696,234)"><rect class="bg" style="stroke-width: 1px; stroke: rgb(0, 0, 0); stroke-opacity: 0; fill: rgb(0, 0, 0); fill-opacity: 0;" x="0.5" y="0.5" width="8" height="19"/><text class="annotation-text" style="font-family: TOBESTRIPPEDOpen SansTOBESTRIPPED, verdana, arial, sans-serif; font-size: 12px; fill: rgb(49, 51, 63); fill-opacity: 1; white-space: pre;" text-anchor="middle" x="4.68359375" y="14"> </text></g></g><g style="opacity: 1;" class="annotation-arrow-g"><path d="M696.65,243.61L632.66,243.61" style="stroke-width: 2px; stroke: rgb(228, 87, 46); stroke-opacity: 1; stroke-dasharray: 0px, 0px, 63.9901px, 63.9901px;"/></g></g><g class="annotation" data-index="9" style="opacity: 1;"><g class="annotation-text-g" transform="rotate(0,675.67,243.61)"><g class="cursor-pointer" transform="translate(671,234)"><rect class="bg" style="stroke-width: 1px; stroke: rgb(0, 0, 0); stroke-opacity: 0; fill: rgb(0, 0, 0); fill-opacity: 0;" x="0.5" y="0.5" width="8" height="19"/><text class="annotation-text" style="font-family: TOBESTRIPPEDOpen SansTOBESTRIPPED, verdana, arial, sans-serif; font-size: 12px; fill: rgb(49, 51, 63); fill-opacity: 1; white-space: pre;" text-anchor="middle" x="4.68359375" y="14"> </text></g></g><g style="opacity: 1;" class="annotation-arrow-g"><path d="M679.67,243.61L743.67,243.61" style="stroke-width: 2px; stroke: rgb(228, 87, 46); stroke-opacity: 1; stroke-dasharray: 0px, 0px, 61.4px, 64px;"/><path d="M-3.7,-2.5V2.5L1.3,0Z" transform="translate(741.0700073242188,243.61000061035156)scale(2)" style="fill: rgb(228, 87, 46); stroke-width: 0px;"/></g></g><g class="annotation" data-index="10" style="opacity: 1;"><g class="annotation-text-g" transform="rotate(0,688.16,228.33)"><g style="pointer-events: all;" class="cursor-pointer" transform="translate(681,214)"><rect class="bg" style="stroke-width: 1px; stroke: rgb(0, 0, 0); stroke-opacity: 0; fill: rgb(0, 0, 0); fill-opacity: 0;" x="0.5" y="0.5" width="14" height="27"/><text class="annotation-text" style="font-family: sans-serif; font-size: 15px; fill: rgb(228, 87, 46); fill-opacity: 1; white-space: pre;" text-anchor="middle" x="7.5" y="20">V</text></g></g></g><g class="annotation" data-index="11" style="opacity: 1;"><g class="annotation-text-g" transform="rotate(0,553.8399999999999,243.61)"><g class="cursor-pointer" transform="translate(549,234)"><rect class="bg" style="stroke-width: 1px; stroke: rgb(0, 0, 0); stroke-opacity: 0; fill: rgb(0, 0, 0); fill-opacity: 0;" x="0.5" y="0.5" width="8" height="19"/><text class="annotation-text" style="font-family: TOBESTRIPPEDOpen SansTOBESTRIPPED, verdana, arial, sans-serif; font-size: 12px; fill: rgb(49, 51, 63); fill-opacity: 1; white-space: pre;" text-anchor="middle" x="4.68359375" y="14"> </text></g></g><g style="opacity: 1;" class="annotation-arrow-g"><path d="M549.8399999999999,243.61L476.23,243.61" style="stroke-width: 2px; stroke: rgb(228, 87, 46); stroke-opacity: 1; stroke-dasharray: 0px, 0px, 73.61px, 73.61px;"/></g></g><g class="annotation" data-index="12" style="opacity: 1;"><g class="annotation-text-g" transform="rotate(0,525.3299999999999,243.61)"><g class="cursor-pointer" transform="translate(521,234)"><rect class="bg" style="stroke-width: 1px; stroke: rgb(0, 0, 0); stroke-opacity: 0; fill: rgb(0, 0, 0); fill-opacity: 0;" x="0.5" y="0.5" width="8" height="19"/><text class="annotation-text" style="font-family: TOBESTRIPPEDOpen SansTOBESTRIPPED, verdana, arial, sans-serif; font-size: 12px; fill: rgb(49, 51, 63); fill-opacity: 1; white-space: pre;" text-anchor="middle" x="4.68359375" y="14"> </text></g></g><g style="opacity: 1;" class="annotation-arrow-g"><path d="M529.3299999999999,243.61L602.94,243.61" style="stroke-width: 2px; stroke: rgb(228, 87, 46); stroke-opacity: 1; stroke-dasharray: 0px, 0px, 71.01px, 73.61px;"/><path d="M-3.7,-2.5V2.5L1.3,0Z" transform="translate(600.3400268554688,243.61000061035156)scale(2)" style="fill: rgb(228, 87, 46); stroke-width: 0px;"/></g></g><g class="annotation" data-index="13" style="opacity: 1;"><g class="annotation-text-g" transform="rotate(0,539.5799999999999,228.33)"><g style="pointer-events: all;" class="cursor-pointer" transform="translate(533,214)"><rect class="bg" style="stroke-width: 1px; stroke: rgb(0, 0, 0); stroke-opacity: 0; fill: rgb(0, 0, 0); fill-opacity: 0;" x="0.5" y="0.5" width="13" height="27"/><text class="annotation-text" style="font-family: sans-serif; font-size: 15px; fill: rgb(228, 87, 46); fill-opacity: 1; white-space: pre;" text-anchor="middle" x="6.9501953125" y="20">L</text></g></g></g><g class="annotation" data-index="14" style="opacity: 1;"><g class="annotation-text-g" transform="rotate(0,353.53,243.61)"><g class="cursor-pointer" transform="translate(349,234)"><rect class="bg" style="stroke-width: 1px; stroke: rgb(0, 0, 0); stroke-opacity: 0; fill: rgb(0, 0, 0); fill-opacity: 0;" x="0.5" y="0.5" width="8" height="19"/><text class="annotation-text" style="font-family: TOBESTRIPPEDOpen SansTOBESTRIPPED, verdana, arial, sans-serif; font-size: 12px; fill: rgb(49, 51, 63); fill-opacity: 1; white-space: pre;" text-anchor="middle" x="4.68359375" y="14"> </text></g></g><g style="opacity: 1;" class="annotation-arrow-g"><path d="M349.53,243.61L225.82,243.61" style="stroke-width: 2px; stroke: rgb(228, 87, 46); stroke-opacity: 1; stroke-dasharray: 0px, 0px, 123.71px, 123.71px;"/></g></g><g class="annotation" data-index="15" style="opacity: 1;"><g class="annotation-text-g" transform="rotate(0,306.61,243.61)"><g class="cursor-pointer" transform="translate(302,234)"><rect class="bg" style="stroke-width: 1px; stroke: rgb(0, 0, 0); stroke-opacity: 0; fill: rgb(0, 0, 0); fill-opacity: 0;" x="0.5" y="0.5" width="8" height="19"/><text class="annotation-text" style="font-family: TOBESTRIPPEDOpen SansTOBESTRIPPED, verdana, arial, sans-serif; font-size: 12px; fill: rgb(49, 51, 63); fill-opacity: 1; white-space: pre;" text-anchor="middle" x="4.68359375" y="14"> </text></g></g><g style="opacity: 1;" class="annotation-arrow-g"><path d="M310.61,243.61L434.32,243.61" style="stroke-width: 2px; stroke: rgb(228, 87, 46); stroke-opacity: 1; stroke-dasharray: 0px, 0px, 121.11px, 123.71px;"/><path d="M-3.7,-2.5V2.5L1.3,0Z" transform="translate(431.7200012207031,243.61000061035156)scale(2)" style="fill: rgb(228, 87, 46); stroke-width: 0px;"/></g></g><g class="annotation" data-index="16" style="opacity: 1;"><g class="annotation-text-g" transform="rotate(0,330.07,228.33)"><g style="pointer-events: all;" class="cursor-pointer" transform="translate(320,214)"><rect class="bg" style="stroke-width: 1px; stroke: rgb(0, 0, 0); stroke-opacity: 0; fill: rgb(0, 0, 0); fill-opacity: 0;" x="0.5" y="0.5" width="19" height="27"/><text class="annotation-text" style="font-family: sans-serif; font-size: 15px; fill: rgb(228, 87, 46); fill-opacity: 1; white-space: pre;" text-anchor="middle" x="9.9833984375" y="20">W</text></g></g></g></g></svg>